<svg width="50" height="50" viewBox="0 0 50 50" fill="none" xmlns="http://www.w3.org/2000/svg">
<g clip-path="url(#clip0)">
<path d="M49.7559 18.0273L44.8145 3.20312C44.1797 1.28906 42.3926 0 40.3711 0H26.5625V18.75H49.873C49.834 18.5059 49.834 18.2617 49.7559 18.0273ZM23.4375 0H9.62891C7.60742 0 5.82031 1.28906 5.18555 3.20312L0.244141 18.0273C0.166016 18.2617 0.166016 18.5059 0.126953 18.75H23.4375V0ZM0 21.875V45.3125C0 47.9004 2.09961 50 4.6875 50H45.3125C47.9004 50 50 47.9004 50 45.3125V21.875H0Z" fill="black"/>
<g filter="url(#filter0_d)">
<path d="M9.62602 44.1969L8.45519 39.1835L9.79039 38.593L11.2236 45.7327L9.87499 46.3292L6.89302 42.4478L7.75831 47.2653L6.40971 47.8618L2.09175 41.9978L3.42696 41.4073L6.34881 45.6356L5.37841 40.5442L6.51267 40.0426L9.62602 44.1969ZM17.3621 39.3073C17.6451 39.9473 17.7802 40.5585 17.7672 41.1409C17.7543 41.7232 17.5944 42.2389 17.2875 42.6878C16.9836 43.1354 16.5593 43.4797 16.0145 43.7207C15.4756 43.959 14.9375 44.0421 14.4003 43.9701C13.863 43.8981 13.3722 43.6737 12.928 43.2971C12.4825 42.9175 12.12 42.4158 11.8406 41.792L11.6984 41.4704C11.4153 40.8304 11.281 40.217 11.2957 39.6304C11.3119 39.0394 11.4727 38.5217 11.7779 38.077C12.0848 37.6281 12.5091 37.2838 13.0509 37.0441C13.5928 36.8045 14.1315 36.7229 14.6671 36.7992C15.2044 36.8712 15.6956 37.1007 16.1408 37.4875C16.5876 37.8701 16.9519 38.3799 17.2337 39.017L17.3621 39.3073ZM15.8742 39.6129C15.5727 38.9312 15.2215 38.4672 14.8207 38.2209C14.4199 37.9746 13.9933 37.9515 13.5407 38.1516C13.0912 38.3504 12.8221 38.6794 12.7333 39.1387C12.6432 39.595 12.7462 40.1617 13.0421 40.8388L13.1823 41.1558C13.4759 41.8197 13.8257 42.2808 14.2318 42.539C14.6379 42.7972 15.0701 42.8249 15.5286 42.6221C15.9781 42.4233 16.2458 42.095 16.3316 41.637C16.416 41.1761 16.3103 40.6071 16.0144 39.93L15.8742 39.6129ZM23.6764 36.5146C23.9595 37.1547 24.0945 37.7659 24.0816 38.3482C24.0686 38.9306 23.9087 39.4462 23.6018 39.8952C23.2979 40.3428 22.8736 40.6871 22.3288 40.9281C21.7899 41.1664 21.2519 41.2495 20.7146 41.1775C20.1773 41.1054 19.6865 40.8811 19.2423 40.5045C18.7968 40.1249 18.4343 39.6232 18.1549 38.9993L18.0127 38.6778C17.7296 38.0377 17.5954 37.4244 17.61 36.8378C17.6263 36.2468 17.787 35.729 18.0922 35.2844C18.3991 34.8354 18.8234 34.4911 19.3653 34.2515C19.9071 34.0119 20.4458 33.9302 20.9814 34.0066C21.5187 34.0786 22.01 34.308 22.4551 34.6949C22.9019 35.0775 23.2662 35.5873 23.548 36.2244L23.6764 36.5146ZM22.1885 36.8203C21.887 36.1386 21.5358 35.6745 21.135 35.4282C20.7342 35.1819 20.3076 35.1588 19.8551 35.359C19.4055 35.5578 19.1364 35.8868 19.0476 36.3461C18.9576 36.8024 19.0605 37.3691 19.3564 38.0462L19.4966 38.3632C19.7902 39.0271 20.1401 39.4881 20.5461 39.7464C20.9522 40.0046 21.3845 40.0323 21.8429 39.8295C22.2925 39.6307 22.5601 39.3023 22.6459 38.8444C22.7303 38.3835 22.6246 37.8145 22.3287 37.1374L22.1885 36.8203ZM26.0225 39.1877L23.1469 32.6858L25.1475 31.801C25.7191 31.5482 26.2869 31.4519 26.851 31.5121C27.4167 31.568 27.9315 31.7781 28.3952 32.1425C28.8576 32.504 29.2224 32.9869 29.4897 33.5912L29.622 33.8904C29.8893 34.4947 30.0019 35.0874 29.9599 35.6684C29.9208 36.248 29.7323 36.7674 29.3943 37.2265C29.0564 37.6857 28.6038 38.0425 28.0365 38.2969L26.0225 39.1877ZM24.9665 33.1784L26.8862 37.519L27.5337 37.2326C28.0577 37.0009 28.3824 36.6526 28.5078 36.1878C28.6333 35.723 28.5581 35.1707 28.2823 34.531L28.1302 34.1871C27.8379 33.5262 27.4798 33.0866 27.0558 32.8684C26.6305 32.6472 26.1543 32.6531 25.6274 32.8861L24.9665 33.1784ZM31.9706 36.557L29.095 30.0551L31.3725 29.0479C32.1614 28.699 32.8269 28.5861 33.3691 28.7094C33.9099 28.8297 34.3094 29.1816 34.5674 29.7651C34.7083 30.0837 34.7509 30.4012 34.6951 30.7177C34.638 31.0313 34.4886 31.3091 34.2469 31.5513C34.6172 31.4872 34.9536 31.5395 35.256 31.7083C35.5614 31.8758 35.7951 32.1426 35.9571 32.5088C36.2336 33.134 36.2435 33.6955 35.9867 34.1935C35.73 34.6914 35.2338 35.1066 34.4981 35.4391L31.9706 36.557ZM32.0582 33.1333L32.8343 34.8883L33.982 34.3807C34.2975 34.2411 34.5102 34.0581 34.62 33.8316C34.7315 33.6007 34.7287 33.3528 34.6115 33.0879C34.3481 32.4925 33.9064 32.3266 33.2862 32.5902L32.0582 33.1333ZM31.6395 32.1866L32.6308 31.7482C33.3013 31.4374 33.5201 31.0185 33.287 30.4916C33.1567 30.1968 32.9769 30.0237 32.7476 29.972C32.5199 29.9161 32.2216 29.9697 31.8524 30.133L30.9146 30.5477L31.6395 32.1866ZM41.7798 28.508C42.0629 29.1481 42.1979 29.7593 42.185 30.3417C42.172 30.924 42.0121 31.4397 41.7052 31.8886C41.4013 32.3362 40.977 32.6805 40.4322 32.9215C39.8933 33.1598 39.3553 33.2429 38.818 33.1709C38.2807 33.0988 37.7899 32.8745 37.3458 32.4979C36.9003 32.1183 36.5378 31.6166 36.2583 30.9927L36.1161 30.6712C35.833 30.0312 35.6988 29.4178 35.7134 28.8312C35.7297 28.2402 35.8904 27.7224 36.1956 27.2778C36.5025 26.8288 36.9269 26.4846 37.4687 26.2449C38.0105 26.0053 38.5492 25.9236 39.0849 26C39.6221 26.072 40.1134 26.3015 40.5585 26.6883C41.0054 27.0709 41.3697 27.5807 41.6514 28.2178L41.7798 28.508ZM40.2919 28.8137C39.9904 28.132 39.6392 27.6679 39.2384 27.4216C38.8376 27.1753 38.411 27.1523 37.9585 27.3524C37.5089 27.5512 37.2398 27.8802 37.151 28.3395C37.061 28.7958 37.1639 29.3625 37.4598 30.0396L37.6 30.3566C37.8936 31.0205 38.2435 31.4816 38.6495 31.7398C39.0556 31.998 39.4879 32.0257 39.9463 31.8229C40.3959 31.6241 40.6635 31.2957 40.7493 30.8378C40.8338 30.3769 40.728 29.8079 40.4321 29.1308L40.2919 28.8137ZM44.4701 25.9354L44.6977 23.1545L46.2384 22.4731L45.7709 26.5347L49.1631 28.9533L47.6046 29.6426L45.347 27.9181L45.1039 30.7485L43.5454 31.4378L44.0383 27.301L40.7189 24.9142L42.2595 24.2329L44.4701 25.9354Z" fill="#FF7223"/>
</g>
</g>
<defs>
<filter id="filter0_d" x="-1.90823" y="22.4731" width="55.0713" height="33.3886" filterUnits="userSpaceOnUse" color-interpolation-filters="sRGB">
<feFlood flood-opacity="0" result="BackgroundImageFix"/>
<feColorMatrix in="SourceAlpha" type="matrix" values="0 0 0 0 0 0 0 0 0 0 0 0 0 0 0 0 0 0 127 0"/>
<feOffset dy="4"/>
<feGaussianBlur stdDeviation="2"/>
<feColorMatrix type="matrix" values="0 0 0 0 0 0 0 0 0 0 0 0 0 0 0 0 0 0 0.25 0"/>
<feBlend mode="normal" in2="BackgroundImageFix" result="effect1_dropShadow"/>
<feBlend mode="normal" in="SourceGraphic" in2="effect1_dropShadow" result="shape"/>
</filter>
<clipPath id="clip0">
<rect width="50" height="50" fill="white"/>
</clipPath>
</defs>
</svg>
