<svg width="200" height="200" viewBox="0 0 200 200" fill="none" xmlns="http://www.w3.org/2000/svg">
<rect width="200" height="200" fill="#E5E5E5"/>
<rect width="200" height="200" fill="white"/>
<g clip-path="url(#clip0)">
<path d="M181.199 77.1297L164.991 28.5062C162.909 22.2281 157.048 18 150.417 18H105.125V79.5H181.584C181.455 78.6992 181.455 77.8984 181.199 77.1297ZM94.875 18H49.5828C42.9523 18 37.0906 22.2281 35.0086 28.5062L18.8008 77.1297C18.5445 77.8984 18.5445 78.6992 18.4164 79.5H94.875V18ZM18 89.75V166.625C18 175.113 24.8867 182 33.375 182H166.625C175.113 182 182 175.113 182 166.625V89.75H18Z" fill="black"/>
<g filter="url(#filter0_d)">
<path d="M42.6817 168.029L38.4667 149.981L43.2734 147.855L48.4329 173.558L43.578 175.706L32.8429 161.733L35.9579 179.076L31.103 181.223L15.5583 160.113L20.3651 157.987L30.8837 173.209L27.3903 154.88L31.4736 153.074L42.6817 168.029ZM70.5314 150.427C71.5505 152.731 72.0367 154.931 71.9901 157.028C71.9435 159.124 71.3678 160.981 70.263 162.597C69.169 164.208 67.6413 165.448 65.68 166.315C63.7402 167.173 61.8032 167.472 59.8689 167.213C57.9347 166.954 56.168 166.146 54.5689 164.79C52.9651 163.424 51.6601 161.618 50.654 159.372L50.1421 158.214C49.123 155.91 48.6398 153.702 48.6924 151.59C48.751 149.463 49.3297 147.599 50.4285 145.998C51.5332 144.382 53.0609 143.142 55.0114 142.279C56.962 141.417 58.9014 141.123 60.8297 141.398C62.7639 141.657 64.5323 142.483 66.1349 143.876C67.7435 145.253 69.0549 147.088 70.0693 149.382L70.5314 150.427ZM65.1751 151.527C64.0896 149.073 62.8254 147.402 61.3826 146.516C59.9397 145.629 58.4037 145.546 56.7747 146.266C55.1564 146.982 54.1874 148.167 53.8679 149.82C53.5437 151.463 53.9142 153.503 54.9794 155.94L55.4843 157.082C56.5413 159.472 57.8007 161.131 59.2625 162.061C60.7244 162.99 62.2805 163.09 63.931 162.36C65.5493 161.645 66.5129 160.462 66.8217 158.814C67.1257 157.155 66.7451 155.106 65.6799 152.669L65.1751 151.527ZM93.263 140.373C94.282 142.677 94.7683 144.878 94.7216 146.974C94.675 149.071 94.0993 150.927 92.9945 152.543C91.9005 154.155 90.3728 155.394 88.4116 156.262C86.4717 157.119 84.5347 157.419 82.6004 157.159C80.6662 156.9 78.8995 156.093 77.3004 154.737C75.6966 153.37 74.3916 151.564 73.3855 149.318L72.8736 148.161C71.8545 145.856 71.3713 143.648 71.4239 141.536C71.4825 139.409 72.0612 137.545 73.16 135.944C74.2647 134.328 75.7924 133.089 77.7429 132.226C79.6935 131.363 81.6329 131.069 83.5612 131.344C85.4954 131.604 87.2638 132.43 88.8664 133.822C90.475 135.199 91.7865 137.035 92.8008 139.328L93.263 140.373ZM87.9066 141.474C86.8211 139.019 85.557 137.349 84.1141 136.462C82.6712 135.576 81.1352 135.492 79.5062 136.213C77.8879 136.929 76.919 138.113 76.5995 139.766C76.2752 141.409 76.6457 143.449 77.711 145.887L78.2158 147.028C79.2728 149.418 80.5322 151.078 81.9941 152.007C83.4559 152.937 85.012 153.037 86.6625 152.307C88.2808 151.591 89.2444 150.409 89.5532 148.76C89.8572 147.101 89.4766 145.053 88.4114 142.615L87.9066 141.474ZM101.709 149.996L91.3569 126.589L98.5589 123.404C100.617 122.494 102.661 122.147 104.692 122.364C106.728 122.565 108.581 123.322 110.251 124.634C111.915 125.935 113.229 127.673 114.191 129.849L114.667 130.926C115.629 133.102 116.035 135.235 115.884 137.327C115.743 139.413 115.064 141.283 113.848 142.936C112.631 144.589 111.002 145.873 108.959 146.79L101.709 149.996ZM97.9074 128.363L104.818 143.989L107.149 142.958C109.036 142.124 110.204 140.87 110.656 139.197C111.108 137.523 110.837 135.535 109.844 133.232L109.297 131.994C108.244 129.615 106.955 128.033 105.429 127.247C103.898 126.45 102.184 126.472 100.287 127.311L97.9074 128.363ZM123.122 140.526L112.77 117.119L120.969 113.493C123.809 112.237 126.205 111.831 128.157 112.274C130.104 112.708 131.542 113.974 132.471 116.075C132.978 117.222 133.131 118.365 132.93 119.504C132.725 120.633 132.187 121.633 131.317 122.505C132.65 122.274 133.861 122.463 134.95 123.071C136.049 123.673 136.89 124.634 137.473 125.952C138.469 128.203 138.504 130.224 137.58 132.017C136.656 133.81 134.87 135.305 132.221 136.501L123.122 140.526ZM123.437 128.2L126.232 134.518L130.363 132.691C131.499 132.189 132.265 131.53 132.66 130.714C133.061 129.883 133.051 128.991 132.629 128.037C131.681 125.893 130.091 125.296 127.858 126.245L123.437 128.2ZM121.93 124.792L125.499 123.214C127.913 122.095 128.7 120.587 127.861 118.69C127.392 117.629 126.745 117.006 125.919 116.82C125.1 116.618 124.026 116.812 122.697 117.399L119.321 118.892L121.93 124.792ZM158.435 111.55C159.454 113.854 159.941 116.054 159.894 118.151C159.847 120.247 159.272 122.103 158.167 123.72C157.073 125.331 155.545 126.57 153.584 127.438C151.644 128.296 149.707 128.595 147.773 128.336C145.838 128.076 144.072 127.269 142.473 125.913C140.869 124.547 139.564 122.74 138.558 120.494L138.046 119.337C137.027 117.033 136.544 114.825 136.596 112.713C136.655 110.585 137.233 108.721 138.332 107.121C139.437 105.504 140.965 104.265 142.915 103.402C144.866 102.54 146.805 102.246 148.733 102.52C150.668 102.78 152.436 103.606 154.039 104.999C155.647 106.376 156.959 108.211 157.973 110.505L158.435 111.55ZM153.079 112.65C151.993 110.196 150.729 108.525 149.286 107.638C147.843 106.752 146.308 106.669 144.678 107.389C143.06 108.105 142.091 109.289 141.772 110.943C141.448 112.585 141.818 114.625 142.883 117.063L143.388 118.204C144.445 120.594 145.705 122.254 147.166 123.184C148.628 124.113 150.184 124.213 151.835 123.483C153.453 122.767 154.417 121.585 154.725 119.937C155.03 118.277 154.649 116.229 153.584 113.791L153.079 112.65ZM168.12 102.288L168.94 92.2768L174.486 89.8239L172.803 104.445L185.015 113.152L179.404 115.634L171.277 109.426L170.402 119.615L164.791 122.097L166.566 107.204L154.616 98.6118L160.162 96.1589L168.12 102.288Z" fill="white"/>
</g>
</g>
<defs>
<filter id="filter0_d" x="11.5583" y="89.8239" width="177.457" height="99.3991" filterUnits="userSpaceOnUse" color-interpolation-filters="sRGB">
<feFlood flood-opacity="0" result="BackgroundImageFix"/>
<feColorMatrix in="SourceAlpha" type="matrix" values="0 0 0 0 0 0 0 0 0 0 0 0 0 0 0 0 0 0 127 0"/>
<feOffset dy="4"/>
<feGaussianBlur stdDeviation="2"/>
<feColorMatrix type="matrix" values="0 0 0 0 0 0 0 0 0 0 0 0 0 0 0 0 0 0 0.25 0"/>
<feBlend mode="normal" in2="BackgroundImageFix" result="effect1_dropShadow"/>
<feBlend mode="normal" in="SourceGraphic" in2="effect1_dropShadow" result="shape"/>
</filter>
<clipPath id="clip0">
<rect width="164" height="164" fill="white" transform="translate(18 18)"/>
</clipPath>
</defs>
</svg>
